<?xml version="1.0" standalone="no"?>
<!DOCTYPE svg PUBLIC "-//W3C//DTD SVG 20010904//EN"
 "http://www.w3.org/TR/2001/REC-SVG-20010904/DTD/svg10.dtd">
<svg version="1.0" xmlns="http://www.w3.org/2000/svg"
 width="640.000000pt" height="640.000000pt" viewBox="0 0 640.000000 640.000000"
 preserveAspectRatio="xMidYMid meet">

<g transform="translate(0.000000,640.000000) scale(0.100000,-0.100000)"
fill="#000000" stroke="none">
<path d="M0 3200 l0 -3200 3200 0 3200 0 0 3200 0 3200 -3200 0 -3200 0 0
-3200z m2218 1591 c31 -21 71 -51 87 -65 17 -15 53 -42 80 -60 28 -19 64 -46
80 -60 17 -15 48 -39 70 -54 22 -15 45 -32 50 -38 6 -6 30 -25 55 -42 25 -16
61 -45 80 -62 19 -18 58 -52 86 -74 67 -55 177 -151 226 -198 22 -21 43 -38
46 -38 4 0 25 -19 47 -41 65 -67 66 -67 141 -2 37 31 84 72 104 92 76 73 118
109 220 191 58 46 110 88 115 94 6 6 33 27 60 45 28 19 52 38 55 41 5 6 111
79 139 95 9 6 35 24 56 41 22 17 80 57 128 90 49 32 97 65 108 73 18 13 19 10
20 -115 1 -71 2 -149 3 -174 1 -25 3 -132 4 -237 2 -152 5 -193 15 -193 7 0
121 54 252 120 131 66 242 120 247 120 4 0 8 -157 8 -350 0 -192 4 -350 8
-350 5 0 35 9 68 21 76 27 134 44 214 65 36 9 74 20 85 24 43 17 62 22 110 30
28 4 95 18 150 30 133 29 134 29 180 37 l39 6 -43 -54 c-23 -30 -57 -70 -75
-89 -18 -19 -36 -43 -42 -52 -5 -9 -23 -31 -39 -50 -17 -18 -61 -71 -98 -118
-114 -142 -131 -164 -147 -180 -8 -8 -39 -47 -69 -85 -30 -39 -60 -74 -66 -80
-6 -5 -60 -71 -120 -145 -60 -74 -129 -160 -154 -190 -25 -31 -55 -68 -66 -83
-11 -15 -23 -27 -27 -27 -5 0 -8 176 -8 390 0 319 -2 392 -14 396 -14 5 -149
-53 -321 -139 l-70 -36 -5 -353 c-5 -324 -7 -355 -24 -381 -10 -15 -24 -31
-30 -35 -7 -4 -41 -43 -76 -87 -67 -83 -326 -346 -420 -426 -62 -53 -77 -66
-186 -166 -44 -39 -88 -80 -100 -90 -45 -39 -168 -149 -196 -175 -16 -16 -35
-28 -43 -28 -7 0 -35 20 -62 44 -26 24 -61 54 -76 67 -16 13 -41 35 -56 49
-16 14 -50 43 -77 65 -27 22 -119 108 -204 191 -85 84 -215 210 -289 280 -73
71 -171 174 -217 228 l-84 100 0 372 0 373 -122 59 c-68 33 -159 75 -203 93
-44 18 -84 36 -89 40 -29 25 -32 -5 -30 -411 0 -226 -2 -410 -6 -410 -7 0
-240 286 -240 295 0 3 -8 13 -17 23 -40 39 -655 813 -651 818 3 2 36 -1 74 -6
38 -6 107 -15 154 -20 47 -5 108 -16 135 -24 28 -9 62 -16 77 -16 15 0 56 -9
90 -19 166 -52 226 -69 254 -75 l32 -7 -3 325 c-3 275 -1 326 10 326 8 0 45
-15 82 -34 38 -18 95 -45 128 -60 33 -15 69 -33 80 -39 118 -64 228 -116 236
-112 5 4 9 153 9 376 0 203 2 369 6 369 3 0 31 -18 62 -39z"/>
<path d="M4159 4653 c-2 -5 -38 -31 -79 -58 -41 -27 -88 -59 -105 -72 -16 -13
-34 -27 -40 -31 -160 -117 -289 -218 -328 -255 -13 -12 -56 -51 -97 -87 -86
-76 -160 -142 -209 -187 l-35 -32 129 -133 c71 -73 139 -144 151 -157 l22 -23
107 78 c58 44 128 95 153 115 26 20 70 49 97 65 28 15 64 38 81 49 18 11 64
40 103 64 l71 44 0 301 c0 260 -7 355 -21 319z"/>
<path d="M2242 4333 c0 -347 -6 -322 88 -373 25 -14 54 -33 64 -42 11 -10 23
-18 27 -18 12 0 121 -74 232 -158 56 -42 121 -89 144 -104 l43 -28 32 36 c53
58 72 80 92 105 10 13 52 58 93 100 l75 77 -23 23 c-13 13 -44 41 -69 63 -103
88 -166 144 -214 187 -28 26 -67 59 -86 75 -19 16 -36 32 -38 37 -2 4 -10 7
-18 7 -8 0 -14 4 -14 8 0 7 -270 217 -326 253 -14 9 -34 26 -45 38 -11 11 -28
21 -38 21 -18 0 -18 -16 -19 -307z"/>
<path d="M1700 3931 c0 -137 4 -261 9 -274 6 -16 23 -29 48 -37 21 -7 49 -18
63 -25 14 -7 57 -27 95 -45 39 -17 79 -36 90 -42 120 -67 147 -70 141 -16 -2
18 -4 134 -5 258 l-1 226 -27 11 c-16 7 -36 17 -45 23 -88 52 -331 170 -349
170 -18 0 -19 -11 -19 -249z"/>
<path d="M4640 4171 c0 -4 -21 -16 -47 -26 -27 -10 -65 -29 -85 -42 -21 -12
-42 -23 -48 -23 -5 0 -10 -4 -10 -10 0 -5 -7 -10 -15 -10 -16 0 -87 -34 -127
-62 l-28 -19 0 -269 c0 -148 3 -275 6 -284 5 -12 16 -10 67 15 34 17 76 37 92
44 59 27 141 63 180 79 22 9 47 21 55 25 13 7 15 53 18 300 l2 291 -30 0 c-16
0 -30 -4 -30 -9z"/>
<path d="M4119 3891 c-24 -16 -87 -56 -139 -89 -101 -65 -349 -244 -349 -252
-1 -3 9 -16 22 -30 52 -58 124 -148 147 -182 14 -21 28 -38 31 -38 3 0 21 -21
40 -46 30 -40 37 -45 63 -40 16 4 37 13 46 21 9 8 38 26 65 41 67 36 86 47
113 64 22 15 22 16 22 292 0 152 -4 279 -9 282 -4 3 -28 -7 -52 -23z"/>
<path d="M2252 3887 c-11 -14 -17 -417 -7 -471 7 -36 18 -45 136 -112 10 -6
27 -18 37 -27 10 -10 23 -17 29 -17 6 0 22 -9 37 -21 14 -11 32 -19 40 -17 11
2 60 60 161 193 96 125 99 134 45 162 -13 6 -27 19 -32 27 -5 9 -13 16 -18 16
-14 0 -100 62 -100 72 0 4 -6 8 -13 8 -8 0 -22 9 -32 20 -10 11 -25 20 -33 20
-8 0 -22 8 -31 19 -9 10 -29 25 -46 34 -16 9 -60 37 -97 61 -49 33 -69 42 -76
33z"/>
<path d="M3180 3853 c0 -5 -26 -35 -58 -69 -161 -172 -202 -218 -202 -229 0
-12 33 -44 131 -127 24 -21 66 -57 94 -82 55 -49 58 -49 116 6 43 39 95 85
172 152 31 27 57 52 57 57 0 8 -25 35 -182 197 -87 89 -128 120 -128 95z"/>
<path d="M1020 3706 c0 -9 4 -16 8 -16 5 0 21 -18 38 -41 16 -22 38 -51 50
-65 11 -13 29 -35 40 -50 10 -14 25 -32 31 -39 11 -12 82 -101 130 -163 10
-13 25 -31 34 -40 8 -10 29 -35 45 -57 16 -22 46 -58 67 -79 20 -22 37 -43 37
-46 0 -4 11 -20 25 -36 15 -16 33 -41 42 -56 41 -67 43 -53 43 256 0 223 -3
296 -12 303 -31 24 -331 109 -433 123 -33 4 -79 11 -102 15 -36 6 -43 5 -43
-9z"/>
<path d="M5345 3703 c-11 -3 -40 -12 -65 -20 -25 -9 -63 -19 -85 -23 -75 -15
-170 -43 -207 -61 -21 -11 -45 -19 -54 -19 -9 0 -43 -9 -75 -21 l-57 -21 -7
-102 c-8 -115 -2 -443 8 -453 4 -3 19 8 35 25 25 29 37 44 82 101 63 80 125
151 132 151 4 0 8 6 8 13 0 6 13 26 28 42 15 17 34 40 42 51 8 12 36 45 62 75
105 122 207 253 202 261 -5 8 -16 9 -49 1z"/>
<path d="M3529 3472 c-8 -9 -35 -34 -60 -55 -99 -84 -189 -171 -189 -183 0 -6
61 -73 135 -149 l135 -136 33 18 c17 10 34 21 35 26 2 4 18 15 34 23 31 16 43
25 77 54 9 8 36 28 59 44 23 16 42 33 42 38 0 8 -132 175 -187 238 -7 8 -30
34 -49 58 -40 47 -42 47 -65 24z"/>
<path d="M2825 3453 c-7 -10 -35 -47 -62 -83 -26 -36 -52 -70 -58 -76 -5 -7
-21 -26 -35 -44 -14 -17 -33 -41 -42 -52 -10 -12 -18 -26 -18 -32 0 -22 255
-210 271 -201 5 4 36 35 68 68 32 34 86 91 120 127 34 36 60 70 59 76 -2 6
-41 44 -88 84 -47 39 -89 77 -95 83 -23 27 -78 67 -91 67 -8 0 -21 -8 -29 -17z"/>
<path d="M2244 3229 c3 -17 6 -116 6 -220 0 -104 4 -189 8 -189 9 0 82 96 82
108 0 5 13 26 30 48 16 21 30 44 30 51 0 6 3 13 8 15 18 8 53 71 50 91 -2 13
-19 30 -43 43 -22 13 -45 27 -52 33 -7 6 -24 16 -38 23 -14 6 -25 15 -25 20 0
4 -14 8 -31 8 -30 0 -31 -2 -25 -31z"/>
<path d="M4138 3226 c-14 -6 -34 -18 -45 -26 -19 -16 -51 -35 -95 -58 -32 -16
-34 -10 46 -130 31 -46 56 -86 56 -89 0 -4 7 -15 17 -25 9 -10 21 -28 27 -40
6 -12 17 -23 24 -26 9 -3 12 41 12 197 0 110 -3 202 -7 204 -5 2 -20 -1 -35
-7z"/>
<path d="M3183 3156 c-4 -7 -55 -63 -113 -125 -58 -61 -108 -119 -111 -128 -5
-16 44 -83 61 -83 4 0 47 -38 95 -85 100 -96 86 -96 180 -6 29 28 56 51 59 51
3 0 21 15 39 34 19 18 44 39 56 45 11 7 21 19 21 29 0 17 -253 282 -270 282
-5 0 -13 -6 -17 -14z"/>
<path d="M2518 3033 c-23 -35 -82 -129 -111 -178 -7 -11 -14 -22 -17 -25 -3
-3 -10 -14 -17 -25 -6 -11 -35 -57 -62 -101 -28 -45 -51 -86 -51 -91 0 -10 48
-68 135 -161 88 -95 111 -118 220 -217 54 -49 115 -106 135 -125 19 -19 76
-71 125 -115 50 -43 113 -100 140 -127 140 -133 182 -167 200 -168 11 0 41 19
66 43 59 54 109 98 199 172 39 33 164 151 278 263 114 111 208 202 210 202 11
0 202 231 202 245 0 5 -11 28 -25 50 -14 22 -31 54 -39 71 -8 17 -22 36 -30
43 -8 7 -18 26 -21 42 -4 16 -11 29 -16 29 -5 0 -13 8 -17 18 -9 21 -80 129
-106 159 -27 31 -38 29 -101 -17 -30 -22 -59 -40 -65 -40 -5 0 -10 -3 -10 -8
0 -4 -18 -18 -40 -32 -22 -14 -40 -28 -40 -32 0 -5 -7 -8 -15 -8 -31 0 -27
-30 8 -73 20 -23 46 -55 59 -71 13 -16 33 -39 46 -51 12 -12 22 -27 22 -32 0
-5 14 -22 30 -38 17 -16 30 -34 30 -41 0 -14 -25 -39 -201 -204 -67 -63 -151
-142 -185 -175 -84 -81 -152 -145 -197 -184 l-37 -33 -43 37 c-51 46 -277 256
-330 308 -21 20 -41 37 -44 37 -2 0 -21 17 -42 38 -20 20 -67 65 -104 98 -37
34 -67 66 -67 72 0 6 12 24 26 39 14 15 46 55 70 88 45 61 89 116 112 140 19
21 15 28 -40 70 -29 22 -59 46 -67 53 -8 8 -30 24 -50 37 -20 12 -42 30 -50
39 -22 26 -46 19 -73 -21z"/>
<path d="M2864 2797 c-52 -62 -132 -164 -142 -183 -13 -25 -2 -37 234 -249 43
-38 105 -96 137 -127 32 -32 61 -58 64 -58 3 0 16 -11 29 -25 13 -14 28 -25
33 -25 6 0 33 21 60 48 27 26 101 97 166 157 64 61 153 145 198 187 l80 78
-48 62 c-27 35 -57 72 -67 83 -11 11 -30 34 -43 50 -22 26 -27 28 -38 15 -7
-8 -41 -40 -77 -70 -36 -30 -69 -60 -73 -67 -4 -7 -13 -13 -20 -14 -7 0 -43
-33 -82 -72 l-70 -72 -100 100 c-97 96 -212 205 -219 205 -1 0 -11 -10 -22
-23z"/>
</g>
</svg>
